<?xml version="1.0" encoding="UTF-8"?>
<svg id="Layer_1" data-name="Layer 1" xmlns="http://www.w3.org/2000/svg" viewBox="0 0 1000 1000">
  <defs>
    <style>
      .cls-1 {
        fill: #d0ccd0;
      }

      .cls-2 {
        fill: #1c6e8c;
      }
    </style>
  </defs>
  <rect class="cls-1" width="1000" height="1000" rx="50" ry="50"/>
  <path class="cls-2" d="M609.429,435h-218.858c-19.245,0-31.273-20.833-21.651-37.5l109.429-189.539c9.622-16.667,33.679-16.667,43.301,0l109.429,189.539c9.622,16.667-2.406,37.5-21.651,37.5Z"/>
  <path class="cls-2" d="M808.349,779.54H191.651c-19.245,0-31.273-20.833-21.651-37.5l123.863-214.54c4.466-7.735,12.719-12.5,21.651-12.5h368.972c8.932,0,17.185,4.765,21.651,12.5l123.863,214.54c9.622,16.667-2.406,37.5-21.651,37.5Z"/>
</svg>